<svg xmlns="http://www.w3.org/2000/svg" viewBox="0 0 512 512">
    <rect width="512" height="512" rx="100" fill="#1e1e24" />
    
    <path d="M 152 512 L 360 512 L 276 100 L 236 100 Z" fill="#333" />
    <path d="M 252 512 L 260 512 L 258 452 L 254 452 Z" fill="#ffcc00" />
    <path d="M 254 412 L 258 412 L 257 372 L 255 372 Z" fill="#ffcc00" />
    <path d="M 255 342 L 257 342 L 256.5 312 L 255.5 312 Z" fill="#ffcc00" />

    <circle cx="256" cy="300" r="120" stroke="#111" stroke-width="40" fill="#2a2a2a" />
    <circle cx="256" cy="300" r="140" stroke="#1c1c1c" stroke-width="6" stroke-dasharray="15 15" fill="none" />

    <path d="M 180 300 A 76 76 0 0 1 332 300" fill="none" stroke="#fff" stroke-width="10" />
    
    <path d="M 180 300 L 195 300" stroke="#00d2ff" stroke-width="8" stroke-linecap="round" />
    <path d="M 215 245 L 225 260" stroke="#00d2ff" stroke-width="8" stroke-linecap="round" />
    <path d="M 256 224 L 256 239" stroke="#00d2ff" stroke-width="8" stroke-linecap="round" />
    <path d="M 297 245 L 287 260" stroke="#00d2ff" stroke-width="8" stroke-linecap="round" />
    <path d="M 332 300 L 317 300" stroke="#00d2ff" stroke-width="8" stroke-linecap="round" />
    
    <path d="M 256 320 L 290 250" stroke="#ff3366" stroke-width="8" stroke-linecap="round" />
    <circle cx="256" cy="320" r="12" fill="#ff3366" />
</svg>
